<svg width="55" height="55" viewBox="0 0 55 55" fill="none" xmlns="http://www.w3.org/2000/svg">
<path fill-rule="evenodd" clip-rule="evenodd" d="M53.2809 28.0476V30.0871C53.2809 30.4497 53.0687 30.759 52.7303 30.8892L49.0087 32.3216C48.4669 34.598 47.5645 36.7721 46.3377 38.7645L47.9575 42.4119C48.1047 42.7433 48.0363 43.1119 47.7799 43.3684L43.68 47.4682C43.4236 47.7246 43.0549 47.7932 42.7235 47.6459L39.0775 46.0265C37.0847 47.2538 34.9096 48.1562 32.6329 48.698L31.2009 52.4187C31.0706 52.7571 30.7614 52.9693 30.3989 52.9693H24.6009C24.2384 52.9693 23.9291 52.757 23.7989 52.4187L22.3665 48.6973C20.09 48.1556 17.9156 47.2532 15.9233 46.0262L12.2763 47.6459C11.9449 47.7931 11.5762 47.7246 11.3198 47.4682L7.21993 43.3684C6.96352 43.1119 6.89498 42.7433 7.04215 42.4119L8.66207 38.7646C7.43521 36.7721 6.53275 34.598 5.99103 32.3217L2.26939 30.8892C1.93102 30.7589 1.71875 30.4497 1.71875 30.0871V28.0475C1.71875 27.5742 2.10482 27.1882 2.57813 27.1883H11.6494C11.6494 35.9423 18.746 43.0388 27.5 43.0388C36.254 43.0388 43.3505 35.9423 43.3506 27.1883H52.4217C52.895 27.1883 53.281 27.5743 53.2809 28.0476ZM46.7738 13.8629C47.107 13.0895 47.876 12.5479 48.7717 12.5479C49.9725 12.5479 50.946 13.5214 50.946 14.7223C50.946 15.9231 49.9725 16.8966 48.7717 16.8966C47.8761 16.8966 47.1071 16.3551 46.7738 15.5817H40.7128V18.4316C40.2023 17.6628 39.6272 16.9409 38.994 16.2744V14.7223C38.994 14.2477 39.3788 13.8629 39.8534 13.8629H46.7738ZM10.499 8.27686C10.499 7.07599 11.4724 6.10253 12.6733 6.10253C13.5689 6.10253 14.3379 6.64404 14.671 7.41748H21.5916C22.0662 7.41748 22.451 7.80227 22.451 8.27686V12.1591C21.8617 12.357 21.2882 12.5891 20.7322 12.852V9.13623H14.6711C14.338 9.90967 13.569 10.4512 12.6734 10.4512C11.4724 10.4513 10.499 9.47772 10.499 8.27686ZM44.5006 8.27686C44.5006 7.07599 43.5271 6.10253 42.3263 6.10253C41.4307 6.10253 40.6617 6.64404 40.3284 7.41748H33.408C32.9334 7.41748 32.5486 7.80227 32.5486 8.27686V12.1592C33.1378 12.3571 33.7113 12.5891 34.2674 12.8521V9.13623H40.3284C40.6615 9.90967 41.4306 10.4512 42.3263 10.4512C43.5271 10.4513 44.5006 9.47772 44.5006 8.27686ZM29.6741 4.2046C29.6741 3.00373 28.7007 2.03027 27.4998 2.03027C26.2989 2.03027 25.3255 3.00373 25.3255 4.2046C25.3255 5.10018 25.867 5.86921 26.6404 6.20232V11.361C26.925 11.3458 27.2114 11.3376 27.4998 11.3376C27.7881 11.3376 28.0746 11.3458 28.3592 11.361V6.20232C29.1326 5.86921 29.6741 5.10018 29.6741 4.2046ZM27.4998 13.0564C19.6949 13.0564 13.3679 19.3834 13.3679 27.1883C13.3679 34.9931 19.6949 41.3201 27.4998 41.3201C35.3046 41.3201 41.6317 34.9931 41.6317 27.1883C41.6317 19.3834 35.3046 13.0564 27.4998 13.0564ZM22.9616 31.2584C23.3232 31.5624 23.3697 32.102 23.0657 32.4635C22.7616 32.825 22.2221 32.8716 21.8606 32.5676L16.254 27.843C15.8925 27.5389 15.8459 26.9993 16.15 26.6378C16.1848 26.5965 16.2227 26.5592 16.263 26.5262L21.8606 21.8092C22.2221 21.5052 22.7616 21.5517 23.0657 21.9133C23.3698 22.2748 23.3232 22.8144 22.9616 23.1185L18.1318 27.1885L22.9616 31.2584ZM30.0493 20.9891L26.6084 33.8306C26.486 34.2885 26.0156 34.5605 25.5577 34.4382C25.0998 34.3158 24.8278 33.8453 24.95 33.3875L28.391 20.5459C28.5133 20.088 28.9838 19.816 29.4417 19.9384C29.8997 20.0607 30.1718 20.5311 30.0493 20.9891ZM38.7456 27.8429L33.1389 32.5675C32.7774 32.8716 32.2378 32.825 31.9337 32.4634C31.6297 32.102 31.6763 31.5624 32.0378 31.2583L36.8676 27.1883L32.0378 23.1183C31.6763 22.8143 31.6297 22.2747 31.9337 21.9131C32.2378 21.5516 32.7774 21.505 33.1389 21.809L38.7365 26.526C38.7768 26.5591 38.8149 26.5963 38.8496 26.6376C39.1536 26.9993 39.107 27.5389 38.7456 27.8429ZM4.05367 14.7223C4.05367 15.9231 5.02713 16.8966 6.228 16.8966C7.12357 16.8966 7.89261 16.3551 8.22572 15.5817H14.2868V18.4314C14.7973 17.6627 15.3724 16.9409 16.0055 16.2743V14.7223C16.0055 14.2477 15.6208 13.8629 15.1462 13.8629H8.22572C7.89261 13.0895 7.12357 12.5479 6.228 12.5479C5.02713 12.5479 4.05367 13.5214 4.05367 14.7223Z" fill="white"/>
</svg>
