<svg width="25" height="25" viewBox="0 0 25 25" fill="none" xmlns="http://www.w3.org/2000/svg">
<g clip-path="url(#clip0_393_12988)">
<path d="M24.3906 12.5C24.3906 16.3586 22.5691 19.7921 19.739 21.9874C17.7088 23.5625 15.1594 24.5 12.3906 24.5C9.6468 24.5 7.11845 23.5792 5.09706 22.0295C2.23567 19.8366 0.390625 16.3836 0.390625 12.5C0.390625 5.87258 5.7632 0.5 12.3906 0.5C19.018 0.5 24.3906 5.87258 24.3906 12.5Z" fill="#F2F2F2"/>
<path d="M21.0826 3.30029L19.7126 19.1873C17.6824 20.7625 15.133 21.6999 12.3642 21.6999C9.62039 21.6999 7.09205 20.7791 5.07066 19.2294L3.69727 3.30029H21.0826Z" fill="#E64C18"/>
<path d="M12.3906 4.78979V21.3328L18.1053 19.7195L19.3801 4.78979H12.3906Z" fill="#F36518"/>
<path d="M6.9707 6.86523L7.53109 13.501H14.9797L14.736 16.2421L12.3916 16.877L9.94994 16.193L9.88862 14.484H7.6142L7.89892 17.8533L12.3916 19.123L16.8842 17.8533L17.441 11.2606H9.59687L9.4022 9.11186L9.40216 9.11177L17.6265 9.06869L17.8125 6.86523H6.9707Z" fill="white"/>
</g>
<defs>
<clipPath id="clip0_393_12988">
<rect width="24" height="24" fill="white" transform="translate(0.390625 0.5)"/>
</clipPath>
</defs>
</svg>
